<svg xmlns="http://www.w3.org/2000/svg" viewBox="0 0 22.41 35.8"><g id="Capa_2" data-name="Capa 2"><g id="Capa_1-2" data-name="Capa 1"><path d="M7.5,35.8a1.45,1.45,0,0,1-1-.95,1.27,1.27,0,0,1,1.15-1.64c.61,0,1.22,0,1.82,0h.39V30c-.95-.28-1.9-.48-2.79-.83A10.93,10.93,0,0,1,1.27,23.9,12,12,0,0,1,0,17.68,1.29,1.29,0,0,1,1.3,16.42a1.28,1.28,0,0,1,1.31,1.26,21.36,21.36,0,0,0,.14,2.41,8.16,8.16,0,0,0,4.51,6.27A8.38,8.38,0,0,0,17.13,25a8.19,8.19,0,0,0,2.62-5.59c0-.54,0-1.09.05-1.64a1.3,1.3,0,0,1,2.6,0A12.31,12.31,0,0,1,21.58,23a11.15,11.15,0,0,1-5.2,5.73,10.83,10.83,0,0,1-3.83,1.19v3.32h2.06a1.3,1.3,0,0,1,.59,2.48l-.29.13Z"/><path d="M17.49,12.45c0,2,0,4,0,6A6.14,6.14,0,0,1,14.33,24,6.27,6.27,0,0,1,5,19.1c0-.65,0-1.3,0-2,0-3.55,0-7.11,0-10.66A6.45,6.45,0,0,1,6.62,2,6.29,6.29,0,0,1,16.79,3.4a6.94,6.94,0,0,1,.7,3.07Zm-2.64,0h0c0-2.11,0-4.22,0-6.33a3.64,3.64,0,0,0-7.27,0c0,4.19,0,8.39,0,12.58a3.64,3.64,0,0,0,7.28,0C14.89,16.64,14.85,14.55,14.85,12.45Z"/></g></g></svg>