<svg xmlns="http://www.w3.org/2000/svg" viewBox="0 0 33.58 33.57"><g id="Capa_2" data-name="Capa 2"><g id="Capa_1-2" data-name="Capa 1"><path d="M17.84,33.57h-2.1l-.29-.06a29,29,0,0,1-3-.51A16.71,16.71,0,0,1,.05,18a15.87,15.87,0,0,1,3.8-11.9C8.49.73,14.35-1.06,21.26.59c6.61,2.1,10.66,6.52,12.06,13.33.12.59.17,1.21.26,1.81v2.1a2.27,2.27,0,0,0-.06.25A16.17,16.17,0,0,1,30.8,26a16.54,16.54,0,0,1-11.09,7.3C19.09,33.43,18.46,33.49,17.84,33.57ZM16.79,2.22A14.56,14.56,0,1,0,31.34,16.79,14.58,14.58,0,0,0,16.79,2.22Z"/><path d="M26,16.77a1.22,1.22,0,0,1-.66,1l-4.08,2.55q-4.1,2.57-8.2,5.12a1.13,1.13,0,0,1-1.84-.95c0-1.45,0-2.89,0-4.33,0-3.71,0-7.41,0-11.12,0-.74.4-1.24,1.05-1.24a1.6,1.6,0,0,1,.79.25q5.51,3.42,11,6.87l1.38.87A1.09,1.09,0,0,1,26,16.77ZM13.45,11V22.59l9.28-5.81Z"/></g></g></svg>